<svg xmlns="http://www.w3.org/2000/svg" viewBox="0 0 5882 1000" role="img" aria-label="ALL Outdoor"><title>ALL Outdoor</title><path fill="#000000" fill-rule="evenodd" d="M555.3 0.0L0.0 988.7L0.5 989.2L1.3 989.6L2.1 989.9L3.2 990.0L23.9 990.2L276.4 990.1L278.5 990.0L280.0 989.5L281.6 988.0L283.0 985.8L300.0 955.4L326.8 908.1L350.4 865.8L370.5 829.2L383.6 805.8L391.4 791.7L401.5 773.8L409.8 758.6L420.8 739.3L441.0 702.7L454.6 678.7L457.1 674.8L459.4 671.5L461.8 668.8L464.9 665.6L467.1 663.7L470.6 661.2L472.1 660.4L475.4 659.0L476.6 658.3L477.5 657.4L478.1 656.5L478.5 655.4L479.0 652.3L479.4 651.0L481.6 645.8L484.8 639.8L487.2 635.9L490.8 630.8L494.7 626.1L498.9 621.6L503.7 617.3L509.7 612.4L516.2 607.6L521.9 603.7L528.1 600.1L538.1 594.6L546.8 590.3L554.8 586.7L563.7 583.2L575.8 578.9L584.5 576.0L593.9 573.2L605.9 569.9L617.2 567.2L630.2 564.2L649.4 560.3L659.4 558.5L673.3 556.5L690.6 554.5L705.9 553.0L731.7 551.0L741.0 550.6L757.0 550.6L759.6 550.9L760.3 551.2L760.7 551.7L760.5 552.1L760.1 552.5L759.0 553.2L754.6 554.5L709.0 571.5L692.7 578.0L681.8 582.7L669.3 588.7L663.2 591.9L658.4 594.5L654.7 596.7L651.5 598.9L648.4 601.2L645.5 603.7L642.3 606.8L639.3 610.2L636.6 613.7L634.3 617.4L632.5 621.1L631.1 624.7L630.1 628.3L629.5 632.0L629.3 636.0L629.6 639.9L630.2 643.8L631.3 647.5L632.8 651.1L634.7 654.5L637.0 657.9L639.7 661.0L643.3 664.5L647.2 667.6L651.4 670.3L655.9 672.7L660.7 674.6L665.6 676.1L671.1 677.4L677.3 678.4L685.3 679.1L695.3 679.4L803.1 679.4L816.3 679.7L820.1 679.9L823.3 680.3L826.4 680.9L829.3 681.6L832.2 682.6L835.0 683.7L837.9 685.1L840.6 686.7L843.7 688.7L846.8 691.0L849.7 693.3L852.4 695.8L854.8 698.3L857.3 701.1L859.8 704.2L862.5 708.0L866.3 713.4L870.0 719.4L889.0 751.6L898.1 766.7L903.8 775.7L910.1 785.1L919.9 799.2L926.8 808.7L934.2 818.4L940.5 826.3L948.9 836.5L953.4 841.9L957.4 846.4L963.4 852.7L978.2 867.7L986.7 876.1L992.3 881.3L999.4 887.6L1009.6 896.1L1018.5 903.2L1026.0 908.8L1036.1 915.8L1047.1 923.2L1056.2 928.8L1066.6 935.0L1078.0 941.4L1086.2 945.8L1096.2 950.9L1104.9 955.1L1117.7 960.6L1131.1 966.1L1142.7 970.5L1153.7 974.4L1167.7 978.8L1186.9 984.1L1199.2 987.2L1210.9 989.7L1225.3 992.2L1244.7 995.2L1264.9 997.3L1275.7 997.9L1323.2 998.6L1344.5 998.1L1350.7 997.8L1356.4 997.4L1381.9 994.7L1390.6 993.6L1397.2 992.6L1404.7 991.2L1413.4 989.4L1436.7 984.0L1450.8 980.2L1464.1 976.0L1478.1 971.1L1490.6 966.1L1505.1 959.6L1521.4 951.6L1538.7 942.7L1544.5 939.4L1550.5 935.8L1566.0 925.7L1578.4 917.1L1592.5 906.5L1599.9 900.7L1605.8 895.8L1611.3 890.9L1622.2 881.1L1631.5 872.2L1638.6 864.7L1651.7 849.8L1658.0 842.4L1665.1 833.5L1671.3 825.4L1677.0 817.5L1682.8 808.9L1689.1 799.0L1695.8 788.1L1700.9 779.3L1705.2 771.1L1711.4 758.9L1715.0 751.4L1718.2 744.3L1724.1 729.9L1728.1 719.6L1731.5 710.2L1734.7 700.1L1737.7 689.9L1740.7 678.7L1744.2 663.9L1746.5 653.3L1748.2 644.3L1749.8 633.4L1751.3 622.2L1752.5 611.4L1753.0 604.3L1753.2 596.2L1753.2 556.0L1753.0 550.4L1752.7 545.1L1750.8 525.7L1749.8 516.9L1748.1 505.8L1746.3 495.2L1744.6 486.3L1742.3 476.6L1738.8 462.9L1736.4 454.5L1733.8 446.1L1730.0 434.9L1726.9 426.1L1722.7 415.5L1718.6 405.6L1714.0 395.6L1708.0 383.0L1703.4 374.1L1698.6 365.3L1693.0 355.6L1686.8 345.7L1679.6 334.8L1671.8 323.3L1665.9 315.1L1660.5 307.9L1653.9 299.8L1646.0 290.3L1640.9 284.5L1635.5 278.8L1622.5 265.8L1615.1 258.6L1609.7 253.6L1602.7 247.7L1594.7 241.1L1586.9 234.8L1578.0 228.0L1570.0 222.2L1561.2 216.1L1551.4 209.7L1543.2 204.6L1533.9 199.2L1524.3 193.8L1515.8 189.4L1507.0 185.1L1495.4 179.9L1485.3 175.5L1476.2 171.8L1465.3 167.7L1454.6 164.0L1445.5 161.1L1434.7 157.9L1425.4 155.4L1416.1 153.3L1406.0 151.2L1394.5 149.1L1384.7 147.5L1377.1 146.5L1354.4 144.3L1347.9 143.9L1339.9 143.8L1310.0 143.7L1299.4 143.8L1293.6 144.1L1288.2 144.5L1273.1 146.3L1261.0 147.9L1253.0 149.1L1242.3 151.1L1230.9 153.5L1219.7 156.0L1209.7 158.6L1200.1 161.2L1190.3 164.2L1179.2 167.9L1169.1 171.5L1157.9 175.8L1147.3 180.1L1134.8 185.6L1124.7 190.2L1115.8 194.6L1106.9 199.4L1095.9 205.7L1085.1 212.1L1075.6 218.0L1067.3 223.5L1058.9 229.4L1051.1 235.3L1040.8 243.4L1030.5 251.7L1020.7 260.1L1014.0 266.1L1007.4 272.5L995.5 284.3L988.1 292.0L975.8 305.8L969.0 313.0L968.1 314.2L967.6 315.4L1061.0 502.0L1061.9 501.5L1062.5 500.6L1063.7 496.5L1065.8 491.2L1069.7 482.1L1075.3 469.9L1080.7 458.9L1084.5 451.8L1089.1 444.1L1094.6 435.2L1099.1 428.6L1104.7 421.0L1111.3 412.6L1119.7 402.8L1126.2 395.6L1131.0 390.7L1137.3 385.0L1146.0 377.4L1153.5 371.2L1160.2 366.1L1167.4 361.0L1175.9 355.4L1183.6 350.8L1192.3 346.1L1205.2 339.6L1213.3 335.8L1220.8 332.7L1230.6 329.0L1240.2 325.8L1249.1 323.1L1258.2 320.8L1266.5 319.0L1275.0 317.5L1285.1 316.1L1295.8 314.9L1304.9 314.1L1313.9 313.8L1326.7 313.7L1336.3 314.1L1344.0 314.7L1353.9 316.0L1365.3 317.9L1374.8 319.7L1383.3 321.7L1391.9 324.2L1401.9 327.4L1411.8 331.1L1419.7 334.2L1427.1 337.6L1436.2 342.1L1445.3 346.9L1452.5 350.9L1459.5 355.3L1466.4 359.9L1473.2 364.8L1481.6 371.4L1491.6 379.6L1498.1 385.3L1503.2 390.2L1508.8 396.2L1519.2 408.1L1524.5 414.6L1529.7 421.5L1535.3 429.4L1540.1 436.8L1544.5 444.0L1550.0 454.0L1554.3 462.2L1557.8 469.9L1561.5 479.2L1565.3 489.9L1568.3 499.2L1570.9 508.7L1573.3 518.9L1575.1 528.5L1576.7 539.3L1578.1 551.6L1578.9 561.8L1579.3 570.4L1579.2 577.7L1578.7 584.8L1577.2 599.9L1576.1 608.9L1574.6 618.1L1572.6 627.4L1570.0 637.8L1567.2 647.3L1564.3 656.0L1560.4 666.2L1556.7 674.8L1552.7 683.2L1548.5 691.4L1544.0 699.1L1538.1 708.4L1531.7 717.8L1525.6 726.2L1518.1 735.6L1512.6 742.2L1506.7 748.5L1499.2 756.0L1492.6 762.0L1484.8 768.6L1476.3 775.3L1467.8 781.3L1458.6 787.5L1449.1 793.3L1440.1 798.4L1432.2 802.4L1423.3 806.4L1412.7 810.8L1403.1 814.3L1395.2 816.8L1386.8 819.0L1377.2 821.2L1368.3 822.9L1357.3 824.4L1346.2 825.6L1337.7 826.0L1326.1 826.1L1315.9 825.9L1307.5 825.4L1297.5 824.2L1286.7 822.5L1278.4 820.8L1270.6 818.8L1260.1 815.6L1250.8 812.4L1243.9 809.5L1236.1 805.8L1225.7 800.5L1218.1 796.3L1213.7 793.5L1209.2 790.5L1204.3 787.0L1198.6 782.6L1194.0 778.9L1190.0 775.5L1186.4 772.1L1182.9 768.7L1179.3 764.8L1175.7 760.7L1171.8 755.7L1168.1 750.8L1165.0 746.5L1162.2 742.3L1159.6 738.0L1157.0 733.2L1147.8 715.7L1138.2 696.8L1129.0 679.3L1122.9 666.8L1115.7 652.4L1105.9 632.0L1096.7 614.2L1086.1 592.4L1046.9 514.1L1036.8 493.4L1029.2 478.4L1016.6 451.7L1005.8 430.6L995.2 409.1L981.4 381.6L971.2 361.8L956.2 330.7L942.3 303.2L928.9 277.9L917.4 254.5L907.9 235.9L871.4 163.3L845.6 113.3L831.6 84.6L812.7 47.2L808.9 39.9L800.4 24.3L791.4 6.8L789.3 2.4L788.4 1.2L787.3 0.0L555.3 0.0ZM668.7 196.4L669.6 196.9L670.4 197.8L671.5 199.6L672.9 202.1L675.1 205.5L703.8 254.9L717.4 278.8L732.5 304.1L760.8 353.0L790.0 405.2L807.1 435.3L818.4 455.7L829.6 475.6L839.3 493.6L854.9 521.5L862.5 536.0L870.2 550.1L873.8 557.1L880.4 570.5L881.0 572.2L881.0 572.7L880.9 573.0L880.1 572.8L878.6 571.6L876.9 570.0L873.4 566.2L870.5 562.4L842.8 528.7L817.1 496.2L796.3 469.2L778.8 447.0L751.1 411.5L694.1 336.9L690.6 332.8L688.6 329.7L688.0 329.0L687.4 328.5L686.1 328.1L685.0 328.6L684.2 329.4L682.7 332.6L679.9 337.6L674.5 347.8L659.2 377.8L647.1 400.6L632.2 429.9L620.5 451.7L606.6 478.8L605.9 479.9L605.2 480.6L604.4 481.2L603.6 481.4L566.7 424.7L565.5 425.0L564.2 426.0L559.8 430.7L501.7 489.0L493.8 497.2L482.2 510.0L476.0 516.5L431.1 561.5L410.7 581.6L408.1 584.0L407.3 584.4L406.8 584.4L406.7 583.8L407.0 582.7L410.6 577.1L424.7 556.7L433.5 543.5L445.1 526.7L456.2 510.0L466.4 495.1L485.3 466.3L517.8 417.6L534.4 393.2L575.3 332.1L588.8 311.7L611.5 278.0L632.0 248.2L644.9 229.1L662.5 203.8L665.3 200.3L667.2 197.3L668.0 196.7L668.7 196.4Z"/><path fill="#E30613" fill-rule="evenodd" d="M393.9 998.6L394.2 999.1L394.7 999.4L396.3 999.8L410.2 1000.0L750.1 1000.0L758.2 999.9L762.9 999.5L766.1 998.9L769.2 998.0L772.2 996.7L776.0 994.6L783.3 990.2L790.5 985.6L800.4 979.0L807.1 974.2L810.5 971.5L813.6 968.8L829.6 954.2L832.3 951.4L835.3 948.2L842.8 939.1L850.1 929.4L852.8 925.5L855.1 921.8L857.0 918.4L859.0 914.3L862.1 907.4L864.2 902.6L865.5 899.1L866.6 895.5L867.6 891.5L868.5 887.6L870.6 874.5L870.9 870.9L871.1 867.6L870.9 864.2L870.6 860.5L869.4 851.8L868.6 847.1L867.8 843.2L866.8 839.3L865.7 835.7L864.4 832.2L862.7 828.3L860.5 823.6L856.5 815.8L853.8 811.2L851.6 807.7L848.8 803.8L845.6 799.6L842.7 796.1L839.7 792.9L835.4 788.5L828.1 781.5L820.9 775.6L811.5 768.5L804.4 763.7L793.4 756.9L778.1 748.5L772.6 745.6L765.1 742.0L755.7 737.8L734.5 729.3L727.9 726.8L704.7 718.4L677.7 709.3L670.2 706.6L644.3 696.8L634.6 692.9L627.1 689.7L620.8 686.4L614.0 682.3L608.0 678.3L602.9 674.4L599.2 670.9L596.0 667.2L594.5 665.0L593.1 662.8L591.9 660.6L590.9 658.4L590.1 656.1L589.5 653.9L589.0 651.1L588.7 648.3L588.9 645.5L589.3 642.7L590.2 639.5L591.5 636.3L593.0 633.0L594.8 630.0L596.9 627.1L599.5 624.1L603.3 620.1L607.6 615.9L610.4 613.4L613.3 611.1L616.4 608.9L620.4 606.2L628.4 601.4L637.7 596.5L657.1 587.3L668.8 582.1L681.0 577.2L696.3 571.6L706.5 568.2L729.2 561.2L741.3 557.1L746.1 555.0L746.8 554.3L747.0 553.6L746.4 553.1L745.5 552.9L744.2 552.8L741.8 552.9L737.4 553.4L725.0 554.4L705.4 556.3L700.1 557.0L664.8 562.6L653.4 564.9L641.7 567.0L627.7 570.2L609.2 574.9L594.0 579.3L585.4 581.9L579.0 584.1L572.6 586.4L566.0 589.1L560.5 591.5L539.7 601.5L534.0 604.6L527.5 608.4L519.4 613.5L516.4 615.7L513.7 617.9L509.8 621.6L503.6 627.7L500.1 631.4L497.5 634.6L494.7 638.3L492.3 642.2L490.2 646.4L488.5 650.4L487.4 653.9L486.7 657.4L486.4 661.1L486.2 665.6L486.4 670.1L486.9 674.1L487.7 677.9L488.9 681.6L490.5 685.6L492.6 689.5L495.0 693.5L497.8 697.3L500.6 700.5L504.0 704.2L508.7 708.8L512.4 712.1L515.6 714.7L519.4 717.5L524.6 721.0L529.2 724.0L545.8 733.5L553.3 737.4L558.5 739.9L569.6 744.8L585.6 752.6L599.2 758.5L606.0 761.9L612.9 766.0L625.6 773.8L631.2 777.8L636.4 782.0L639.8 785.2L643.7 789.0L646.6 792.3L649.2 795.3L651.6 798.7L653.8 802.2L655.6 805.5L657.0 808.7L658.2 812.1L659.0 815.5L659.6 819.1L660.0 822.7L660.0 827.2L659.8 831.3L659.4 834.9L658.6 838.3L657.3 842.0L655.6 845.9L653.4 850.0L650.6 854.4L648.3 857.7L645.8 860.7L642.7 864.1L638.9 867.8L635.6 870.8L632.0 873.7L626.9 877.7L622.3 881.0L608.5 890.3L593.4 899.7L562.7 917.4L545.7 926.3L534.1 932.6L529.8 934.9L511.6 943.3L490.5 953.7L475.1 960.7L462.0 967.0L448.3 973.0L434.4 979.4L395.9 996.5L395.0 996.9L394.4 997.4L394.0 998.0L393.9 998.6Z"/><path fill="#000000" fill-rule="evenodd" d="M2791.3 289.5L2791.3 721.5L2792.5 722.6L2794.0 723.4L2797.6 724.3L2810.4 725.7L2823.4 726.0L3017.7 726.0L3030.4 725.6L3057.4 723.8L3067.8 723.8L3076.0 724.8L3077.9 724.4L3079.7 723.5L3080.9 722.2L3081.9 720.5L3082.6 718.7L3082.9 716.6L3084.8 674.4L3084.9 646.8L3084.3 630.7L3083.5 626.5L3082.5 624.4L3081.3 622.7L3079.9 621.7L3078.1 620.9L3075.9 620.4L3073.1 620.2L3054.6 619.9L2940.5 619.8L2919.7 619.6L2916.1 619.2L2914.6 618.6L2913.4 617.9L2912.2 615.8L2911.6 613.3L2911.3 595.4L2911.2 310.4L2910.6 294.3L2909.8 291.6L2908.2 289.0L2906.7 287.9L2905.0 287.0L2903.2 286.5L2900.7 286.2L2885.5 285.8L2862.2 285.8L2850.5 286.0L2829.9 286.9L2797.7 287.4L2794.2 288.0L2791.3 289.5ZM2461.1 290.4L2460.1 292.6L2459.4 296.1L2459.1 314.6L2459.1 694.4L2459.6 717.4L2460.4 721.1L2461.9 723.5L2464.3 724.9L2467.4 725.6L2483.2 726.0L2667.9 726.0L2684.6 725.7L2718.6 723.6L2737.4 723.5L2743.9 724.0L2746.1 723.6L2748.5 722.6L2748.5 619.7L2581.2 619.7L2581.2 287.7L2576.8 286.4L2573.3 286.0L2551.5 285.7L2486.4 285.8L2475.0 286.5L2466.6 287.6L2463.6 288.5L2461.1 290.4ZM1944.0 722.7L1945.3 723.9L1947.1 724.8L1948.9 725.3L1951.7 725.6L1967.5 726.0L1999.7 726.1L2021.3 725.7L2041.9 724.1L2051.1 723.6L2056.4 723.5L2062.6 723.8L2064.6 723.5L2066.5 722.7L2098.3 646.2L2264.3 646.2L2299.6 723.4L2423.2 723.4L2242.1 287.4L2239.8 286.5L2236.9 286.0L2222.7 285.8L2149.4 285.7L2136.8 286.1L2130.1 287.1L2127.3 287.9L2124.9 289.0L2122.7 290.3L2120.5 292.1L2118.5 294.2L2116.5 296.8L2114.2 300.7L2111.9 305.3L2099.6 334.3L2082.0 378.7L2063.4 423.9L2055.2 442.9L2021.1 526.7L2009.6 555.5L2003.1 570.9L1995.4 590.4L1973.9 642.7L1965.3 662.5L1949.6 701.0L1946.0 710.5L1943.4 718.3L1943.2 720.5L1944.0 722.7ZM2180.5 429.3L2181.9 429.9L2183.2 431.4L2186.1 437.7L2215.5 512.6L2220.0 525.2L2225.4 542.5L2225.7 545.1L2225.0 546.7L2136.2 546.7L2180.5 429.3Z"/><path fill="#E30613" fill-rule="evenodd" d="M3755.1 400.2L3753.6 402.6L3752.7 405.9L3752.2 422.3L3752.1 592.0L3752.5 608.6L3753.3 615.5L3757.0 638.3L3758.4 644.3L3760.3 650.7L3764.2 661.6L3767.6 669.4L3771.9 676.9L3777.5 684.9L3781.2 689.5L3785.3 694.0L3789.8 698.5L3794.4 702.5L3803.0 709.0L3813.5 715.2L3824.8 720.5L3836.0 724.5L3843.4 726.5L3850.9 728.2L3856.4 729.1L3862.1 729.7L3879.4 730.0L3896.5 730.0L3904.6 729.7L3914.6 728.5L3927.0 725.7L3934.3 723.6L3940.9 721.4L3947.2 718.9L3953.2 716.1L3961.3 711.7L3970.7 705.6L3979.2 698.9L3980.7 698.3L3981.9 698.4L3982.8 699.2L3983.5 700.7L3985.4 712.4L3986.7 716.1L3988.0 718.5L3989.9 721.0L3992.3 722.8L3995.3 724.2L3998.7 725.1L4003.3 725.7L4009.4 726.0L4036.6 725.9L4065.9 723.7L4088.8 723.3L4095.3 723.4L4097.8 722.8L4100.2 721.5L4101.9 718.8L4102.5 715.8L4103.0 694.4L4103.0 420.8L4102.7 402.9L4102.3 400.4L4101.2 398.7L3984.2 398.7L3982.6 401.7L3981.7 404.7L3981.1 418.5L3980.9 572.6L3980.5 583.6L3979.9 588.0L3979.0 591.9L3977.8 596.0L3976.1 600.2L3974.1 604.3L3971.8 608.2L3969.4 611.4L3966.8 614.4L3964.0 617.2L3960.9 619.7L3957.0 622.2L3953.0 624.3L3948.6 626.2L3943.7 628.0L3938.7 629.4L3933.8 630.4L3929.2 630.9L3924.5 631.1L3920.1 630.9L3915.8 630.3L3911.3 629.4L3906.6 628.0L3902.6 626.5L3898.8 624.8L3895.4 622.8L3892.2 620.5L3889.5 618.1L3887.0 615.4L3884.6 612.3L3882.5 608.9L3880.4 604.9L3878.5 600.4L3877.0 596.1L3875.8 591.7L3874.6 583.7L3874.2 572.7L3874.1 425.7L3873.9 404.2L3873.5 400.7L3872.3 398.2L3869.9 396.9L3866.4 396.5L3845.5 396.2L3788.7 396.3L3778.1 396.7L3760.5 398.0L3757.5 398.7L3755.1 400.2ZM5763.1 436.2L5759.8 398.2L5757.3 396.9L5753.8 396.5L5733.7 396.2L5672.5 396.3L5655.1 396.9L5652.1 397.7L5649.5 399.3L5648.4 400.8L5647.5 402.5L5646.8 406.2L5646.3 420.1L5646.2 434.8L5646.3 699.8L5646.9 717.2L5647.7 720.2L5649.4 722.9L5652.0 724.6L5655.3 725.4L5675.7 726.0L5703.6 726.0L5729.1 725.0L5755.9 725.7L5760.2 725.0L5762.9 723.4L5764.3 721.4L5765.0 718.3L5765.5 704.1L5765.6 586.5L5766.0 572.1L5767.0 563.0L5769.2 553.4L5771.7 545.6L5775.2 538.1L5778.4 532.6L5782.0 527.7L5785.8 523.3L5789.8 519.6L5794.5 516.2L5799.4 513.2L5805.2 510.5L5811.7 507.9L5818.1 505.9L5824.0 504.3L5829.5 503.3L5835.7 502.4L5843.0 501.8L5849.7 501.6L5873.6 502.1L5880.1 501.1L5882.1 500.5L5882.1 396.8L5880.8 396.1L5869.2 393.5L5861.6 392.8L5855.3 392.8L5847.6 393.6L5834.0 396.2L5825.9 398.0L5819.1 400.0L5812.3 402.5L5805.3 405.6L5798.0 409.3L5791.9 412.8L5787.5 416.0L5783.0 419.6L5766.4 435.2L5764.7 436.2L5763.1 436.2ZM5410.1 389.3L5396.9 391.4L5381.3 393.3L5369.8 395.7L5360.3 398.3L5351.0 401.2L5341.0 404.8L5333.2 408.2L5325.9 411.9L5317.1 417.1L5307.8 423.1L5300.5 428.3L5293.4 434.1L5285.8 440.9L5279.7 447.0L5274.2 453.2L5269.7 458.9L5265.4 465.3L5256.7 479.2L5252.7 486.4L5249.8 492.8L5247.0 500.5L5244.3 508.9L5242.0 517.8L5240.2 525.9L5239.2 532.4L5238.6 539.4L5238.1 550.9L5238.0 560.4L5238.6 582.6L5239.0 589.1L5239.6 594.4L5241.3 602.9L5243.8 612.7L5246.3 620.2L5249.6 628.4L5253.4 636.4L5257.8 644.4L5263.5 653.9L5269.3 662.6L5273.9 668.8L5278.2 674.0L5283.2 679.3L5288.6 684.3L5293.3 688.1L5298.8 692.1L5316.9 703.9L5324.6 708.3L5333.9 713.0L5341.4 716.3L5349.1 719.2L5358.1 722.0L5366.1 724.2L5388.0 728.4L5398.0 729.6L5410.3 730.0L5448.1 729.9L5455.5 729.6L5461.8 728.8L5482.8 724.7L5497.6 720.8L5509.7 716.5L5525.5 709.5L5532.8 705.7L5543.4 699.4L5551.2 694.6L5557.4 690.4L5562.6 686.4L5567.6 682.0L5572.3 677.3L5577.0 672.2L5581.9 666.0L5590.2 654.7L5594.5 648.6L5597.7 643.4L5600.8 637.7L5603.5 631.6L5606.9 623.5L5609.4 616.3L5611.6 608.7L5613.7 600.0L5615.1 593.0L5616.1 585.3L5618.5 559.2L5618.5 553.1L5617.8 546.7L5613.9 525.4L5611.8 517.0L5609.1 508.3L5606.1 500.0L5602.7 491.9L5598.6 483.4L5594.4 475.6L5590.8 469.9L5586.8 464.3L5577.3 452.3L5572.1 446.4L5564.8 439.5L5546.7 425.0L5540.6 420.7L5534.0 416.6L5526.0 412.3L5517.2 408.1L5510.2 405.2L5501.3 402.0L5488.6 397.7L5479.8 395.1L5470.4 393.2L5455.0 391.5L5442.0 389.5L5436.1 388.8L5429.6 388.5L5422.2 388.5L5415.8 388.8L5410.1 389.3ZM5430.8 485.7L5437.8 486.2L5444.7 487.5L5451.3 489.7L5458.9 493.0L5466.4 497.0L5472.5 501.1L5477.6 505.6L5482.0 510.8L5486.2 516.9L5489.7 523.6L5492.9 531.8L5495.4 540.0L5496.6 546.4L5497.3 553.4L5497.5 563.1L5497.2 572.2L5496.4 578.7L5494.9 585.0L5492.4 592.2L5489.2 599.1L5485.5 605.4L5481.3 611.2L5476.7 616.4L5471.9 620.8L5466.6 624.6L5460.8 627.8L5454.1 630.7L5447.1 633.0L5440.8 634.4L5434.6 635.2L5427.2 635.5L5419.5 635.2L5412.6 634.3L5406.0 632.8L5398.5 630.3L5391.5 627.2L5386.0 624.1L5381.0 620.5L5376.7 616.6L5372.9 612.1L5368.8 606.0L5365.3 599.6L5362.7 593.4L5360.4 586.1L5358.3 577.2L5357.2 569.7L5356.7 561.4L5357.0 553.1L5357.8 546.2L5359.5 538.3L5361.7 530.4L5364.1 523.8L5366.9 518.1L5370.3 512.6L5373.9 508.1L5378.2 503.6L5383.7 499.1L5390.3 494.6L5395.9 491.4L5401.2 489.2L5406.2 487.8L5412.4 486.8L5423.1 485.9L5430.8 485.7ZM5011.5 389.3L4998.1 391.5L4981.4 393.3L4970.8 395.4L4962.2 397.7L4954.7 400.2L4945.8 403.5L4936.3 407.6L4928.7 411.2L4922.2 414.7L4915.9 418.6L4909.0 423.3L4902.3 428.4L4886.6 441.2L4881.9 445.4L4877.8 449.7L4872.0 456.7L4865.8 464.6L4862.0 470.3L4858.5 476.1L4854.0 484.7L4849.7 494.1L4846.1 503.2L4843.3 511.5L4841.3 518.9L4839.3 528.3L4838.2 534.4L4837.7 540.1L4837.3 549.8L4837.4 568.5L4837.6 576.6L4838.3 583.3L4839.6 590.6L4842.3 604.0L4844.0 610.5L4846.2 617.2L4849.9 627.1L4853.6 635.8L4857.2 642.9L4861.6 650.2L4865.7 656.3L4870.3 662.0L4875.7 667.8L4885.8 678.0L4895.9 688.1L4902.0 693.6L4907.9 698.5L4914.4 703.1L4921.5 707.4L4928.9 711.1L4937.8 714.9L4949.8 719.4L4957.9 722.0L4965.6 724.1L4986.6 728.1L4996.6 729.5L5007.9 730.0L5045.0 729.9L5052.4 729.6L5058.7 729.0L5082.0 724.7L5089.2 723.1L5095.9 721.2L5104.3 718.3L5117.1 713.4L5124.3 710.2L5130.8 706.9L5138.3 702.6L5146.3 697.4L5156.4 690.1L5163.3 684.6L5167.2 681.0L5171.0 676.9L5183.0 662.0L5188.1 655.2L5192.1 649.0L5196.2 641.5L5200.6 632.5L5203.8 625.0L5206.5 617.5L5208.9 609.7L5211.3 600.4L5213.1 592.3L5214.3 585.2L5215.3 576.9L5215.7 570.1L5215.6 560.7L5214.2 539.0L5213.5 532.0L5212.4 525.6L5210.3 516.9L5208.1 509.0L5205.6 501.1L5203.0 494.0L5200.2 487.6L5197.2 481.6L5194.0 476.0L5190.4 470.6L5185.8 464.3L5176.5 452.2L5171.1 445.9L5166.2 440.9L5161.0 436.1L5155.2 431.4L5148.5 426.4L5140.8 421.2L5133.4 416.7L5125.6 412.5L5117.1 408.4L5110.1 405.5L5101.9 402.4L5091.5 398.9L5082.1 396.2L5075.2 394.5L5069.4 393.4L5053.4 391.5L5036.4 388.9L5030.3 388.5L5023.6 388.5L5017.2 388.8L5011.5 389.3ZM5008.8 487.9L5015.3 487.1L5024.0 486.7L5034.0 486.9L5041.3 487.6L5046.8 488.7L5052.0 490.4L5057.5 492.9L5063.4 496.2L5069.0 499.9L5073.8 503.8L5077.9 507.9L5081.7 512.8L5085.5 518.7L5088.8 525.2L5092.2 533.3L5094.4 540.0L5095.6 546.4L5096.2 553.3L5096.3 564.7L5095.9 573.8L5095.0 579.7L5093.6 585.3L5091.5 591.3L5088.8 597.1L5085.2 603.1L5080.8 608.9L5074.7 615.6L5068.2 621.6L5063.4 625.2L5058.6 627.9L5053.3 630.1L5046.6 632.1L5038.8 633.9L5032.0 634.9L5025.4 635.2L5018.7 634.9L5011.3 633.8L5003.0 631.8L4996.4 629.5L4990.7 626.7L4985.4 623.1L4979.9 618.3L4974.2 612.4L4969.7 606.6L4966.3 601.2L4963.4 595.2L4960.8 588.4L4958.5 580.5L4956.7 572.6L4955.9 565.8L4955.7 558.1L4956.2 550.9L4957.6 543.6L4959.9 535.3L4962.7 527.9L4966.0 521.1L4970.0 514.5L4974.4 508.5L4978.8 503.7L4983.4 499.7L4989.2 495.8L4996.2 492.1L5002.7 489.5L5008.8 487.9ZM4192.9 314.6L4192.9 394.1L4139.8 398.8L4139.8 484.7L4190.8 488.8L4192.1 491.2L4192.5 494.8L4192.8 515.6L4192.8 624.1L4193.0 633.5L4193.6 640.5L4194.8 648.2L4197.4 661.0L4199.2 667.5L4201.2 673.2L4203.8 679.0L4207.1 684.6L4211.0 690.0L4215.8 695.6L4222.9 702.6L4229.7 708.2L4237.2 713.0L4246.9 718.1L4255.5 722.0L4263.6 724.7L4275.8 727.7L4285.3 729.3L4293.6 729.9L4307.4 730.0L4338.9 729.9L4350.5 729.3L4356.8 728.5L4376.7 725.0L4395.1 721.1L4397.6 720.4L4399.9 719.4L4401.6 718.3L4401.1 717.0L4401.1 629.4L4397.3 628.4L4394.1 628.1L4389.8 628.4L4383.4 629.7L4377.4 630.7L4368.8 631.4L4351.5 631.6L4345.7 631.3L4341.0 630.8L4337.7 630.1L4334.5 629.1L4331.5 627.8L4329.0 626.2L4326.4 624.3L4324.0 622.0L4321.7 619.2L4319.8 616.4L4317.6 611.8L4316.1 606.9L4315.2 601.0L4314.9 593.6L4314.8 516.3L4315.0 494.9L4315.5 491.4L4316.1 489.8L4316.9 486.7L4399.5 486.7L4399.5 398.4L4316.8 394.1L4315.5 391.7L4315.0 388.5L4314.7 335.8L4314.3 319.9L4313.6 315.9L4312.8 314.2L4311.7 312.7L4309.9 311.7L4307.7 311.3L4300.6 311.9L4278.3 312.4L4270.5 312.0L4246.7 310.1L4235.5 309.8L4224.1 310.5L4204.7 312.6L4199.1 312.8L4196.7 313.5L4192.9 314.6ZM4687.1 275.9L4687.1 422.1L4683.0 422.2L4681.2 421.5L4673.2 415.3L4666.0 411.0L4659.8 407.6L4647.2 401.5L4637.4 397.5L4629.8 395.1L4622.0 393.2L4601.2 389.6L4592.0 388.6L4582.0 388.5L4573.1 389.2L4551.0 393.0L4542.6 394.9L4534.1 397.4L4525.9 400.7L4514.6 406.0L4503.0 412.1L4494.1 417.6L4486.1 423.8L4477.7 431.6L4465.2 444.2L4459.9 450.4L4455.2 456.8L4448.8 467.0L4444.0 475.8L4440.7 483.0L4437.7 491.3L4431.9 509.3L4429.5 518.5L4425.7 540.3L4424.9 546.5L4424.4 555.5L4424.3 568.9L4424.8 578.3L4425.8 586.4L4429.7 606.5L4433.1 620.2L4436.2 629.7L4440.0 639.0L4444.7 648.9L4449.7 657.7L4456.1 667.2L4462.6 675.4L4472.3 685.8L4483.2 696.2L4490.1 702.0L4496.7 706.5L4504.6 711.1L4515.2 716.5L4524.7 720.6L4534.2 723.8L4547.6 727.1L4559.0 729.1L4568.2 729.8L4583.9 730.0L4604.6 729.9L4615.1 729.2L4624.0 727.6L4635.3 724.7L4644.0 721.9L4651.9 718.6L4658.9 715.0L4666.5 710.4L4678.1 702.3L4686.6 695.1L4688.0 694.4L4689.5 694.4L4693.3 722.3L4695.3 723.6L4697.8 724.3L4712.9 725.7L4724.9 726.0L4752.2 726.0L4762.9 725.8L4796.7 724.2L4800.6 723.4L4802.4 722.5L4804.1 721.3L4805.6 718.9L4806.3 715.8L4806.7 697.1L4806.7 605.3L4806.4 579.8L4806.7 532.3L4806.3 510.5L4806.7 489.0L4806.7 458.8L4806.0 427.5L4806.7 395.7L4806.7 307.5L4806.6 296.8L4806.1 283.3L4805.3 279.9L4803.5 277.0L4800.9 275.3L4797.8 274.5L4780.1 273.9L4715.4 273.9L4694.9 274.1L4691.6 274.6L4687.1 275.9ZM4601.0 487.9L4608.5 487.0L4618.2 486.7L4627.2 487.1L4634.4 488.0L4640.3 489.6L4646.5 492.0L4652.7 495.3L4658.7 499.2L4664.7 504.2L4670.3 509.7L4675.0 515.6L4679.0 521.8L4682.6 528.8L4685.4 535.9L4688.0 544.7L4689.8 553.4L4690.5 559.9L4690.2 566.3L4689.1 573.3L4686.9 581.9L4684.4 589.2L4681.4 596.1L4677.8 602.4L4673.7 608.1L4669.2 613.0L4664.1 617.8L4659.0 621.6L4653.2 625.0L4647.2 627.8L4640.3 630.3L4631.5 632.7L4623.9 634.3L4617.7 634.9L4611.5 634.7L4605.1 633.8L4598.0 632.0L4589.9 629.3L4583.2 626.4L4577.5 623.0L4572.1 619.0L4567.2 614.5L4562.8 609.4L4559.1 604.2L4555.9 598.7L4553.4 593.1L4551.3 587.1L4549.1 578.5L4547.5 570.3L4546.8 563.4L4546.6 556.4L4547.1 549.7L4548.3 542.7L4550.3 534.6L4552.6 527.7L4555.4 521.6L4559.1 515.3L4562.9 510.0L4566.5 505.8L4570.5 502.1L4574.9 498.8L4581.2 495.2L4588.6 491.7L4595.2 489.3L4601.0 487.9ZM3430.5 271.0L3417.5 273.5L3400.1 277.5L3388.8 280.5L3378.1 284.0L3368.5 287.7L3358.8 292.1L3345.7 298.7L3336.2 304.2L3324.3 312.1L3315.0 318.7L3308.6 323.9L3301.5 330.5L3287.8 344.3L3280.4 352.3L3272.0 363.1L3263.2 375.5L3257.6 384.4L3252.6 393.8L3247.3 404.8L3242.6 416.3L3238.6 427.2L3235.7 436.5L3232.8 448.8L3231.0 458.5L3230.1 468.4L3229.4 488.8L3230.1 531.0L3230.7 537.4L3231.6 543.3L3236.2 564.0L3239.5 575.8L3243.4 587.7L3247.4 598.5L3251.2 607.1L3255.4 614.9L3261.1 624.1L3269.1 635.9L3275.2 644.0L3290.7 662.7L3295.1 667.2L3300.3 671.7L3314.6 683.0L3324.4 690.0L3338.9 699.4L3351.0 706.1L3359.7 710.3L3367.6 713.6L3377.9 717.3L3388.4 720.5L3398.5 723.1L3407.5 725.1L3426.2 728.5L3434.3 729.5L3441.7 729.9L3453.2 730.0L3493.3 730.0L3504.7 729.6L3510.7 729.0L3517.4 727.9L3533.9 724.7L3546.2 721.8L3555.9 719.1L3567.1 715.2L3575.9 711.9L3584.2 708.1L3599.5 700.5L3608.9 695.4L3617.3 690.2L3626.9 683.4L3636.0 676.1L3643.5 669.4L3648.5 664.2L3664.4 646.8L3669.4 640.9L3674.0 634.7L3679.8 626.3L3684.6 618.4L3690.1 608.2L3697.8 592.7L3701.6 584.0L3704.7 575.2L3707.1 567.2L3708.9 559.5L3713.0 539.4L3716.6 519.6L3717.2 513.2L3717.5 506.1L3717.4 498.0L3716.9 491.3L3712.3 460.6L3708.6 443.5L3705.6 433.2L3700.7 419.1L3696.2 407.8L3691.1 396.5L3686.8 388.4L3681.2 379.2L3674.7 369.4L3668.0 360.4L3659.6 349.3L3654.5 343.3L3646.3 334.8L3638.2 327.1L3632.2 322.2L3625.2 317.1L3600.9 301.3L3593.2 296.8L3585.9 293.0L3577.3 289.1L3568.0 285.4L3558.2 282.0L3549.5 279.3L3538.8 276.6L3530.0 274.8L3507.9 271.0L3497.4 270.1L3445.8 270.0L3437.4 270.3L3430.5 271.0ZM3473.4 377.9L3483.8 379.1L3497.7 381.8L3508.3 384.8L3518.8 388.7L3528.4 393.5L3539.1 400.1L3547.1 406.1L3553.7 412.4L3560.2 420.5L3567.1 431.1L3572.6 441.3L3577.3 452.2L3579.4 458.5L3581.5 465.5L3585.5 482.6L3587.1 492.5L3587.4 502.1L3586.5 512.2L3582.7 533.9L3580.5 542.6L3577.2 552.3L3572.6 562.9L3567.6 572.0L3562.2 579.4L3554.6 587.6L3545.4 596.3L3537.1 602.7L3526.9 608.8L3515.3 614.3L3509.1 616.6L3501.9 619.0L3495.1 621.0L3489.7 622.2L3485.1 623.0L3480.0 623.5L3467.4 623.7L3456.9 622.9L3446.2 620.8L3431.8 616.7L3425.5 614.4L3419.9 612.1L3414.7 609.5L3409.7 606.6L3398.4 598.9L3390.3 592.2L3383.8 585.2L3380.3 580.5L3376.4 574.9L3373.0 569.4L3370.2 564.3L3365.8 554.6L3362.0 543.1L3358.3 527.8L3356.5 517.3L3355.9 506.7L3356.0 487.1L3356.7 476.5L3358.4 467.1L3362.1 454.1L3366.6 442.5L3370.8 434.1L3375.7 426.5L3384.3 415.4L3390.9 408.4L3399.1 401.8L3409.6 394.8L3418.7 389.8L3428.2 385.8L3439.6 382.1L3450.7 379.7L3463.1 378.0L3468.4 377.8L3473.4 377.9Z"/></svg>